<?xml version="1.0" encoding="utf-8"?>
<!-- Generator: Adobe Illustrator 26.0.2, SVG Export Plug-In . SVG Version: 6.00 Build 0)  -->
<svg version="1.1" id="Layer_1" xmlns="http://www.w3.org/2000/svg" xmlns:xlink="http://www.w3.org/1999/xlink" x="0px" y="0px"
	 viewBox="0 0 32 32" style="enable-background:new 0 0 32 32;" xml:space="preserve">
<style type="text/css">
	.st0{fill:#283618;}
</style>
<path class="st0" d="M0,0.4v31.2h32V0.4L0,0.4z M1.3,1.7h29.3v28.5H1.3L1.3,1.7z M11.7,22c0,0.1,0,0.2-0.2,0.2H9.5
	c-0.1,0-0.2-0.1-0.2-0.2V7.7c0-0.1,0.1-0.2,0.2-0.2h2.1c0.1,0,0.2,0,0.2,0.2V22z M14.1,16.9c0-3.2,2.1-5.7,5.5-5.7
	c0.3,0,0.4,0,0.7,0V7.7c0-0.1,0.1-0.1,0.1-0.1h2.2c0.1,0,0.1,0,0.1,0.1v12.5c0,0.4,0,0.8,0.1,1.3c0,0.1,0,0.1-0.1,0.2
	c-1.1,0.5-2.4,0.8-3.5,0.8C16.2,22.4,14.1,20.6,14.1,16.9L14.1,16.9z M20.2,13.4c-0.2-0.1-0.5-0.1-0.8-0.1c-1.7,0-2.9,1.3-2.9,3.5
	c0,2.5,1.2,3.5,2.8,3.5c0.3,0,0.7,0,0.9-0.2V13.4z"/>
</svg>
