<?xml version="1.0" encoding="utf-8"?>
<!-- Generator: Adobe Illustrator 26.0.2, SVG Export Plug-In . SVG Version: 6.00 Build 0)  -->
<svg version="1.1" id="Layer_1" xmlns="http://www.w3.org/2000/svg" xmlns:xlink="http://www.w3.org/1999/xlink" x="0px" y="0px"
	 viewBox="0 0 32 32" style="enable-background:new 0 0 32 32;" xml:space="preserve">
<style type="text/css">
	.st0{fill:#283618;}
</style>
<path class="st0" d="M17.7,16C17.7,7.6,11,0.8,2.6,0.8H0v6.7h2.6c4.7,0,8.5,3.8,8.5,8.5s-3.8,8.5-8.5,8.5H0v6.7h2.6
	C11,31.2,17.7,24.4,17.7,16z M32,10.1c0-5.1-4.1-9.2-9.3-9.2H12.1c2.6,1.6,4.8,3.9,6.2,6.7h4.4c1.4,0,2.6,1.2,2.6,2.6
	c0,1.4-1.2,2.6-2.6,2.6h-2.6c0.4,2.2,0.4,4.5,0,6.7h2.6c1.4,0,2.6,1.2,2.6,2.6c0,1.4-1.2,2.6-2.6,2.6h-4.4c-1.5,2.7-3.6,5-6.2,6.7
	h10.7c2.2,0,4.3-0.8,5.9-2.1c3.9-3.3,4.5-9.1,1.2-13C31.2,14.3,32,12.2,32,10.1L32,10.1z"/>
</svg>
