<?xml version="1.0" encoding="utf-8"?>
<!-- Generator: Adobe Illustrator 26.0.2, SVG Export Plug-In . SVG Version: 6.00 Build 0)  -->
<svg version="1.1" id="Layer_1" xmlns="http://www.w3.org/2000/svg" xmlns:xlink="http://www.w3.org/1999/xlink" x="0px" y="0px"
	 viewBox="0 0 512 512" style="enable-background:new 0 0 512 512;" xml:space="preserve">
<style type="text/css">
	.st0{fill:#283618;}
</style>
<path class="st0" d="M386.2,121.7c-1-6-6.7-10-12.7-9c-2.2,0.4-4.3,1.4-5.9,3L80,400l159.3,91.8c10.1,5.6,22.3,5.6,32.4,0L432,400
	L386.2,121.7z"/>
<path class="st0" d="M221.3,136.7L221.3,136.7l-103,192c-1.1,1.9-0.3,4.4,1.6,5.4c1.6,0.8,3.5,0.6,4.7-0.7L256.6,203l0.5-0.5
	L221.3,136.7z"/>
<path class="st0" d="M207.2,129.1l5-9.4L160,21.9c-5.1-9.5-17.9-7.1-19.6,3.5L89.1,343.7c-0.1,0.7,0.4,1.4,1.1,1.5
	c0.6,0.1,1.1-0.2,1.4-0.7l0,0L207.2,129.1z"/>
<path class="st0" d="M235.4,129l33.6,61.8l32.5-32.1L265.3,90c-4.2-8-14.4-8.8-18.5-0.8l-16.4,30.6L235.4,129L235.4,129z"/>
</svg>
