<?xml version="1.0" encoding="utf-8"?>
<!-- Generator: Adobe Illustrator 26.0.2, SVG Export Plug-In . SVG Version: 6.00 Build 0)  -->
<svg version="1.1" id="Layer_1" xmlns="http://www.w3.org/2000/svg" xmlns:xlink="http://www.w3.org/1999/xlink" x="0px" y="0px"
	 viewBox="0 0 32 32" style="enable-background:new 0 0 32 32;" xml:space="preserve">
<style type="text/css">
	.st0{fill:#283618;}
</style>
<path class="st0" d="M16.2,0C11.9-0.1,7.7,1.6,4.7,4.7c-6.2,6.2-6.2,16.4,0,22.6c6.2,6.2,16.4,6.2,22.6,0c6.3-6.2,6.3-16.4,0-22.6
	C24.4,1.7,20.4,0.1,16.2,0z M10.4,8c0.7,0.2,1.4,0.3,2.2,0.3c1.2,0,2.5-0.3,3.7-0.3c2.4,0,4.6,1.1,4.6,3.7c0,2.1-1.2,3.4-3.1,3.9
	l3.7,5.5h1.7v1.3h-2.6l-4.4-6.6h-2.3v5.2h2.3v1.3h-5.8v-1.3h2V9.5l-2-0.2L10.4,8L10.4,8z M16.3,9.3c-0.8,0-1.6,0.1-2.5,0.2v5.1
	l1.3,0c3.1,0,4.2-1.1,4.2-2.7C19.3,10.1,18,9.3,16.3,9.3z"/>
</svg>
